<?xml version="1.0" encoding="utf-8"?>
<!-- Generator: Adobe Illustrator 23.0.1, SVG Export Plug-In . SVG Version: 6.00 Build 0)  -->
<svg version="1.1" id="Layer_1" xmlns="http://www.w3.org/2000/svg" xmlns:xlink="http://www.w3.org/1999/xlink" x="0px" y="0px"
	 viewBox="0 0 987.18 143.43" style="enable-background:new 0 0 987.18 143.43;" xml:space="preserve">
<style type="text/css">
	.st0{fill:#FFFFFF;}
</style>
<g>
	<g>
		<path class="st0" d="M7.96,136.3V32.81h7.96v-7.96h7.96v-7.96h7.96V8.92h103.49v103.49h-7.96v7.96h-7.96v7.96h-7.96v7.96H7.96z
			 M103.49,128.34V40.77H15.92v87.57H103.49z M111.46,24.84h7.96v-7.96H31.84v7.96h-7.96v7.96h87.57V24.84z M39.81,112.42V56.69
			h39.81v7.96H47.77v15.92h31.84v7.96H47.77v23.88H39.81z M119.42,112.42h7.96V24.84h-7.96v7.96h-7.96v87.57h7.96V112.42z"/>
		<path class="st0" d="M151.26,112.42V64.65h7.96v-7.96h23.88v7.96h7.96v47.77h-7.96V88.53h-23.88v23.88H151.26z M183.11,80.57
			V64.65h-23.88v15.92H183.11z"/>
		<path class="st0" d="M214.95,112.42v-7.96h-7.96V64.65h7.96v-7.96h23.88v7.96h7.96v7.96h-7.96v-7.96h-23.88v39.81h23.88V96.5h7.96
			v7.96h-7.96v7.96H214.95z"/>
		<path class="st0" d="M262.72,112.42V56.69h39.81v7.96h-31.84v15.92h31.84v7.96h-31.84v15.92h31.84v7.96H262.72z"/>
		<path class="st0" d="M350.29,136.3V32.81h7.96v-7.96h7.96v-7.96h7.96V8.92h103.5v103.49h-7.96v7.96h-7.96v7.96h-7.96v7.96H350.29z
			 M445.82,128.34V40.77h-87.57v87.57H445.82z M453.78,24.84h7.96v-7.96h-87.57v7.96h-7.96v7.96h87.57V24.84z M382.13,112.42V56.69
			h31.84v7.96h7.96v15.92h-7.96v7.96h7.96v23.88h-7.96V88.53h-23.88v23.88H382.13z M413.98,80.57V64.65h-23.88v15.92H413.98z
			 M461.75,112.42h7.96V24.84h-7.96v7.96h-7.96v87.57h7.96V112.42z"/>
		<path class="st0" d="M493.59,112.42V56.69h39.8v7.96h-31.84v15.92h31.84v7.96h-31.84v15.92h31.84v7.96H493.59z"/>
		<path class="st0" d="M557.28,112.42v-7.96h-7.96V64.65h7.96v-7.96h23.88v7.96h7.96v7.96h-7.96v-7.96h-23.88v39.81h23.88V96.5h7.96
			v7.96h-7.96v7.96H557.28z"/>
		<path class="st0" d="M613.01,112.42v-7.96h-7.96V64.65h7.96v-7.96h23.88v7.96h7.96v39.81h-7.96v7.96H613.01z M636.89,64.65h-23.88
			v39.81h23.88V64.65z"/>
		<path class="st0" d="M668.73,112.42v-7.96h-7.96V64.65h7.96v-7.96h23.88v7.96h7.96v7.96h-7.96v-7.96h-23.88v39.81h23.88V88.53
			h-7.96v-7.96h15.92v23.88h-7.96v7.96H668.73z"/>
		<path class="st0" d="M716.5,112.42V56.69h15.92v7.96h7.96v39.81h7.96V56.69h7.96v55.73h-7.96h-7.96v-7.96h-7.96V64.65h-7.96v47.77
			H716.5z"/>
		<path class="st0" d="M772.23,112.42v-7.96h15.92V64.65l-15.92,0.12v-8.08h39.81v7.96h-15.92v39.81h15.92v7.96H772.23z"/>
		<path class="st0" d="M827.96,112.42V96.5h7.96v-7.96h7.96v-7.96h7.96v-7.96h7.96v-7.84h-31.84v-8.08h39.81v15.92h-7.96v7.96h-7.96
			v7.96h-7.96v7.96h-7.96v7.96h31.84v7.96H827.96z"/>
		<path class="st0" d="M883.68,112.42V56.69h39.81v7.96h-31.84v15.92h31.84v7.96h-31.84v15.92h31.84v7.96H883.68z"/>
		<path class="st0" d="M939.41,112.42V56.69h31.84v7.96h7.96v15.92h-7.96v7.96h7.96v23.88h-7.96V88.53h-23.88v23.88H939.41z
			 M971.26,80.57V64.65h-23.88v15.92H971.26z"/>
	</g>
</g>
</svg>
